<svg width="14" height="25" viewBox="0 0 14 25" fill="none" xmlns="http://www.w3.org/2000/svg">
<path d="M13.4646 24.4497C13.8074 24.0973 14 23.6193 14 23.1209C14 22.6225 13.8074 22.1446 13.4646 21.7921L4.4136 12.4887L13.4646 3.18519C13.7977 2.83071 13.982 2.35595 13.9779 1.86315C13.9737 1.37036 13.7814 0.89896 13.4424 0.550488C13.1034 0.202015 12.6447 0.00435377 12.1653 7.15053e-05C11.6859 -0.00421076 11.224 0.185231 10.8792 0.527595L0.535359 11.1599C0.192569 11.5123 2.04742e-07 11.9903 2.04742e-07 12.4887C2.04742e-07 12.987 0.192569 13.465 0.535359 13.8175L10.8792 24.4497C11.222 24.8021 11.687 25 12.1719 25C12.6567 25 13.1217 24.8021 13.4646 24.4497V24.4497Z" fill="#F8F8F8"/>
</svg>
