<svg width="15" height="15" viewBox="0 0 21 21" fill="none" xmlns="http://www.w3.org/2000/svg">
<path d="M14.2498 6.43548C13.6358 2.65464 12.1875 0 10.5021 0C8.8167 0 7.36842 2.65464 6.75439 6.43548H14.2498ZM6.43678 10.5C6.43678 11.4399 6.4876 12.3417 6.57653 13.2097H14.4235C14.5124 12.3417 14.5632 11.4399 14.5632 10.5C14.5632 9.56008 14.5124 8.65827 14.4235 7.79032H6.57653C6.4876 8.65827 6.43678 9.56008 6.43678 10.5ZM20.1869 6.43548C18.9758 3.56069 16.5239 1.3379 13.4961 0.440323C14.5293 1.87137 15.2408 4.02641 15.6134 6.43548H20.1869ZM7.50393 0.440323C4.48034 1.3379 2.0242 3.56069 0.817302 6.43548H5.3908C5.75923 4.02641 6.47066 1.87137 7.50393 0.440323V0.440323ZM20.64 7.79032H15.7828C15.8717 8.67944 15.9226 9.58972 15.9226 10.5C15.9226 11.4103 15.8717 12.3206 15.7828 13.2097H20.6358C20.8687 12.3417 21 11.4399 21 10.5C21 9.56008 20.8687 8.65827 20.64 7.79032ZM5.08167 10.5C5.08167 9.58972 5.13249 8.67944 5.22142 7.79032H0.364186C0.135511 8.65827 0 9.56008 0 10.5C0 11.4399 0.135511 12.3417 0.364186 13.2097H5.21718C5.13249 12.3206 5.08167 11.4103 5.08167 10.5V10.5ZM6.75439 14.5645C7.36842 18.3454 8.8167 21 10.5021 21C12.1875 21 13.6358 18.3454 14.2498 14.5645H6.75439ZM13.5003 20.5597C16.5239 19.6621 18.98 17.4393 20.1912 14.5645H15.6177C15.245 16.9736 14.5336 19.1286 13.5003 20.5597ZM0.817302 14.5645C2.02843 17.4393 4.48034 19.6621 7.50817 20.5597C6.47489 19.1286 5.76346 16.9736 5.3908 14.5645H0.817302V14.5645Z" fill="#111111"/>
</svg>
